<?xml version="1.0" encoding="utf-8"?>
<!-- Generator: Adobe Illustrator 16.0.0, SVG Export Plug-In . SVG Version: 6.00 Build 0)  -->
<!DOCTYPE svg PUBLIC "-//W3C//DTD SVG 1.1//EN" "http://www.w3.org/Graphics/SVG/1.1/DTD/svg11.dtd">
<svg version="1.1" xmlns="http://www.w3.org/2000/svg" xmlns:xlink="http://www.w3.org/1999/xlink" x="0px" y="0px" width="960px"
	 height="560px" viewBox="0 0 960 560" enable-background="new 0 0 960 560" xml:space="preserve">
<g id="Layer_1">
	<linearGradient id="SVGID_1_" gradientUnits="userSpaceOnUse" x1="-1" y1="281" x2="959" y2="281">
		<stop  offset="0" style="stop-color:#000732"/>
		<stop  offset="0.3524" style="stop-color:#00002C"/>
		<stop  offset="0.8652" style="stop-color:#00001A"/>
		<stop  offset="0.9944" style="stop-color:#00000E"/>
	</linearGradient>
	<rect x="-1" y="1" fill="url(#SVGID_1_)" width="960" height="560"/>
	<path opacity="0.1" fill="#FFFFFF" d="M590.23,222.358c-16.38-26.727-50.928-34.767-77.053-18.472
		c-14.977-19.544-40.029-26.528-62.025-19.122v-82.395c0-31.161-25.13-56.517-56.019-56.517c-30.888,0-56.018,25.356-56.018,56.517
		v170.642c-19.078-12.827-44.631-13.029-64.154,1.378c-24.914,18.39-30.365,53.548-12.32,78.736l107.196,149.623
		c10.502,14.652,27.474,23.404,45.396,23.404h174.219c25.995,0,48.622-18.1,54.542-43.65L670.8,366.885
		c0.978-4.219,1.472-8.543,1.472-12.873v-81.614C672.271,229.842,627.233,202.689,590.23,222.358z M329.024,304.379l26.507,36.992
		c0,4.148,3.363,7.506,7.505,7.506c4.145,0,7.504-3.363,7.502-7.51c0-1.564-0.491-3.09-1.404-4.367V102.369
		c0-35.036,51.998-35.09,51.998,0v170.029c0,4.147,3.361,7.507,7.505,7.507h6.703c4.143,0,7.503-3.359,7.503-7.507v-34.001
		c0-35.042,51.997-35.097,51.997,0v34.001c0,4.147,3.36,7.507,7.506,7.507h6.697c4.144,0,7.508-3.359,7.508-7.507v-20.404
		c0-35.036,51.997-35.091,51.997,0v20.404c0,4.147,3.358,7.507,7.504,7.507h6.7c4.146,0,7.505-3.359,7.505-7.507
		c0-35.037,51.997-35.09,51.997,0v81.614c0,2.053-0.234,4.102-0.697,6.096l-26.803,115.621
		c-2.784,12.014-13.19,20.404-25.301,20.404H415.235c-8.268,0-16.117-4.064-20.995-10.873L287.033,335.635
		C266.196,306.555,309.36,276.938,329.024,304.379L329.024,304.379z M421.13,422.021v-81.613c0-4.141,3.364-7.504,7.504-7.504h6.703
		c4.146,0,7.506,3.363,7.506,7.504v81.613c0,4.148-3.36,7.506-7.506,7.506h-6.703C424.494,429.527,421.13,426.17,421.13,422.021z
		 M494.841,422.021v-81.613c0-4.141,3.357-7.504,7.506-7.504h6.697c4.144,0,7.508,3.363,7.508,7.504v81.613
		c0,4.148-3.364,7.506-7.508,7.506h-6.697C498.198,429.527,494.841,426.17,494.841,422.021z M568.545,422.021v-81.613
		c0-4.141,3.362-7.504,7.506-7.504h6.702c4.146,0,7.505,3.363,7.505,7.504v81.613c0,4.148-3.359,7.506-7.505,7.506h-6.702
		C571.907,429.527,568.545,426.17,568.545,422.021z"/>
</g>
<g id="Layer_2">
</g>
<g id="Layer_5" display="none">
	<path display="inline" opacity="0.05" fill="#FFFFFF" d="M818.807,239.636l-1.068-1.667c-1.754,0.128-3.463,0.128-5.217,0
		l-1.068,1.709c-2.48,3.934-7.313,5.73-11.758,4.318c-5.9-1.838-9.834-3.762-14.666-7.738c-3.848-3.164-4.789-8.68-2.309-12.998
		l1.068-1.838c-0.982-1.453-1.838-2.95-2.607-4.532h-3.891c-4.959,0-9.15-3.506-10.09-8.38c-1.111-5.857-1.154-10.347,0.043-16.461
		c0.896-4.831,5.172-8.338,10.09-8.338h3.848c0.77-1.581,1.625-3.078,2.607-4.531l-1.111-1.924
		c-2.479-4.275-1.539-9.705,2.225-12.955c4.531-3.891,8.422-6.114,14.322-8.123c4.617-1.582,9.705,0.299,12.186,4.531l1.111,1.881
		c1.754-0.127,3.463-0.127,5.217,0l1.111-1.881c2.48-4.232,7.568-6.113,12.229-4.489c5.686,1.925,9.533,4.104,14.322,8.167
		c3.762,3.206,4.66,8.637,2.182,12.912l-1.113,1.881c0.984,1.453,1.84,2.95,2.609,4.531h2.18c4.959,0,9.15,3.507,10.09,8.381
		c1.113,5.857,1.154,10.347-0.043,16.461c-0.896,4.831-5.172,8.337-10.09,8.337h-2.137c-0.77,1.582-1.625,3.079-2.609,4.532
		l1.07,1.838c2.521,4.361,1.496,9.877-2.352,13.041c-4.576,3.763-8.51,5.729-14.537,7.653
		C826.16,245.365,821.287,243.611,818.807,239.636L818.807,239.636z M824.023,224.885l4.531,7.824
		c2.865-1.197,5.516-2.736,7.996-4.617l-4.533-7.824l2.736-3.207c2.053-2.438,3.678-5.174,4.703-8.166l1.412-3.977h9.021
		c0.385-3.035,0.385-6.156,0-9.191h-9.021l-1.412-3.977c-1.068-2.993-2.65-5.729-4.703-8.166l-2.736-3.207l4.49-7.867
		c-2.438-1.881-5.131-3.42-7.996-4.617l-4.531,7.824l-4.148-0.77c-3.121-0.6-6.328-0.6-9.449,0l-4.146,0.77l-4.531-7.824
		c-2.822,1.154-5.516,2.736-7.953,4.617l4.531,7.824l-2.736,3.207c-2.051,2.437-3.676,5.173-4.703,8.166l-1.41,3.977h-9.021
		c-0.385,3.035-0.385,6.156,0,9.191h9.021l1.41,3.977c1.07,2.993,2.652,5.729,4.703,8.166l2.736,3.207l-4.531,7.867
		c2.438,1.881,5.131,3.42,7.996,4.617l4.531-7.824l4.146,0.77c3.121,0.6,6.328,0.6,9.449,0L824.023,224.885z M650.65,349.945
		v-13.512c-5.516-2.352-10.732-5.387-15.563-9.021l-11.758,6.799c-4.191,2.395-9.449,1.582-12.699-1.967
		c-10.347-11.245-16.461-21.164-21.634-37.668c-1.454-4.574,0.47-9.534,4.618-11.971l11.672-6.799c-0.727-5.986-0.727-12.014,0-18
		l-11.672-6.756c-4.148-2.394-6.072-7.396-4.618-11.971c5.173-16.418,11.202-26.338,21.634-37.668
		c3.25-3.549,8.551-4.361,12.699-1.967l11.715,6.799c4.83-3.635,10.047-6.627,15.563-9.021v-13.512c0-4.83,3.334-8.979,8.037-10.004
		c14.836-3.335,26.51-3.72,43.482,0c4.703,1.025,8.082,5.216,8.082,10.004v13.512c5.516,2.352,10.73,5.387,15.563,8.979
		l11.715-6.756c4.189-2.395,9.492-1.582,12.74,1.967c11.502,12.656,17.744,23.9,22.275,37.839c1.455,4.489-0.342,9.363-4.361,11.843
		l-10.688,6.756c0.727,5.986,0.727,12.014,0,18l12.014,7.482c3.678,2.309,5.559,6.67,4.617,10.902
		c-2.949,13.383-14.109,27.62-23.898,38.138c-3.25,3.506-8.51,4.276-12.656,1.882l-11.758-6.799
		c-4.832,3.635-10.047,6.627-15.563,9.021v13.511c0,4.788-3.336,8.979-8.039,10.005c-16.033,3.549-27.748,3.506-43.568,0
		C653.984,358.924,650.65,354.733,650.65,349.945L650.65,349.945z M664.332,347.294c10.604,2.138,21.592,2.138,32.195,0v-20.395
		l4.574-1.624c7.184-2.523,13.811-6.371,19.625-11.33l3.676-3.164l17.701,10.218c7.184-8.166,14.537-17.657,18-27.876
		l-17.701-10.219l0.898-4.746c1.369-7.525,1.369-15.178,0-22.703l-0.898-4.746l17.701-10.219c-3.463-10.218-10.816-19.752-18-27.876
		l-17.701,10.219l-3.676-3.164c-5.814-5.003-12.4-8.808-19.625-11.33l-4.574-1.625v-20.352c-10.604-2.138-21.592-2.138-32.195,0
		v20.395l-4.574,1.624c-7.184,2.523-13.811,6.371-19.625,11.33l-3.678,3.164l-17.701-10.218
		c-7.158,8.138-12.637,17.612-16.118,27.876l17.7,10.219l-0.896,4.746c-1.369,7.525-1.369,15.178,0,22.703l0.896,4.746l-17.7,10.219
		c3.464,10.218,8.937,19.752,16.118,27.876l17.701-10.219l3.678,3.164c5.814,5.003,12.398,8.808,19.625,11.33l4.574,1.625V347.294z
		 M680.75,302.272c-19.539,0-35.445-15.905-35.445-35.444s15.906-35.444,35.445-35.444s35.443,15.905,35.443,35.444
		S700.289,302.272,680.75,302.272z M680.75,245.065c-11.973,0-21.764,9.749-21.764,21.763s9.75,21.763,21.764,21.763
		c11.971,0,21.762-9.749,21.762-21.763S692.764,245.065,680.75,245.065z M818.807,369.783l-1.068-1.668
		c-1.754,0.129-3.463,0.129-5.217,0l-1.068,1.711c-2.48,3.934-7.313,5.729-11.758,4.318c-5.9-1.839-9.834-3.763-14.666-7.739
		c-3.848-3.163-4.789-8.679-2.309-12.997l1.068-1.839c-0.982-1.454-1.838-2.95-2.607-4.532h-3.891c-4.959,0-9.15-3.506-10.09-8.38
		c-1.111-5.857-1.154-10.347,0.043-16.461c0.896-4.831,5.172-8.337,10.09-8.337h3.848c0.77-1.582,1.625-3.078,2.607-4.532
		l-1.111-1.925c-2.479-4.275-1.539-9.705,2.225-12.954c4.531-3.891,8.422-6.114,14.322-8.124c4.617-1.582,9.705,0.3,12.186,4.532
		l1.111,1.882c1.754-0.129,3.463-0.129,5.217,0l1.111-1.882c2.48-4.232,7.568-6.114,12.229-4.489
		c5.686,1.924,9.533,4.104,14.322,8.166c3.762,3.207,4.66,8.637,2.182,12.912l-1.113,1.882c0.984,1.454,1.84,2.95,2.609,4.532h2.18
		c4.959,0,9.15,3.506,10.09,8.38c1.113,5.857,1.154,10.347-0.043,16.461c-0.896,4.831-5.172,8.337-10.09,8.337h-2.137
		c-0.77,1.582-1.625,3.078-2.609,4.532l1.07,1.839c2.521,4.361,1.496,9.876-2.352,13.04c-4.576,3.763-8.51,5.729-14.537,7.653
		C826.16,375.47,821.287,373.717,818.807,369.783L818.807,369.783z M824.023,354.99l4.531,7.824
		c2.865-1.197,5.516-2.736,7.996-4.618l-4.533-7.824l2.736-3.206c2.053-2.438,3.678-5.174,4.703-8.167l1.412-3.976h9.021
		c0.385-3.036,0.385-6.157,0-9.193h-9.021l-1.412-3.976c-1.068-2.993-2.65-5.729-4.703-8.167l-2.736-3.206l4.533-7.824
		c-2.438-1.882-5.131-3.421-7.996-4.618l-4.531,7.824l-4.148-0.77c-3.121-0.598-6.328-0.598-9.449,0l-4.146,0.77l-4.531-7.824
		c-2.865,1.197-5.516,2.736-7.996,4.618l4.531,7.824l-2.736,3.206c-2.051,2.438-3.676,5.174-4.703,8.167l-1.41,3.976h-9.021
		c-0.385,3.036-0.385,6.157,0,9.193h9.021l1.41,3.976c1.07,2.993,2.652,5.729,4.703,8.167l2.736,3.206l-4.531,7.824
		c2.438,1.882,5.131,3.421,7.996,4.618l4.531-7.824l4.146,0.77c3.121,0.598,6.328,0.598,9.449,0L824.023,354.99z M827.957,330.105
		c0-7.566-6.115-13.682-13.682-13.682c-7.568,0-13.684,6.115-13.684,13.682c0,7.568,6.115,13.683,13.684,13.683
		C821.842,343.788,827.957,337.674,827.957,330.105z M827.957,200.002c0-7.568-6.115-13.682-13.682-13.682
		c-7.568,0-13.684,6.113-13.684,13.682c0,7.567,6.115,13.682,13.684,13.682C821.842,213.684,827.957,207.526,827.957,200.002z"/>
</g>
<g id="Layer_3" display="none">
	<g display="inline" opacity="0.4">
		<path fill="none" stroke="#FFFFFF" stroke-miterlimit="10" d="M532.5,470.5c0,6.627-5.373,12-12,12h-188c-6.627,0-12-5.373-12-12
			v-402c0-6.627,5.373-12,12-12h188c6.627,0,12,5.373,12,12V470.5z"/>
		<path fill="none" stroke="#FFFFFF" stroke-miterlimit="5" d="M454.5,462.402c0,5.024-4.997,9.098-11.062,9.098H409.4
			c-6.064,0-10.9-4.073-10.9-9.098v-0.03c0-5.024,4.836-8.872,10.9-8.872h34.038c6.064,0,11.062,3.848,11.062,8.872V462.402z"/>
		<rect x="324.5" y="78.5" fill="none" stroke="#FFFFFF" stroke-miterlimit="5" width="203" height="366"/>
		<rect x="405.5" y="65.5" fill="none" stroke="#FFFFFF" stroke-miterlimit="5" width="41" height="4"/>
		<circle fill="#FFFFFF" stroke="#FFFFFF" stroke-miterlimit="10" cx="381.919" cy="67" r="3.5"/>
	</g>
</g>
<g id="Layer_4">
	<rect x="68.842" y="95.316" fill="none" width="642.105" height="284.21"/>
</g>
</svg>
